<svg width="72" height="72" viewBox="0 0 72 72" fill="none" xmlns="http://www.w3.org/2000/svg">
<g clip-path="url(#clip0_2904_4102)">
<path d="M0.81076 9.34919C1.10353 9.48435 1.44135 9.50688 1.77917 9.50688C8.35533 9.50688 14.9315 9.50688 21.4851 9.50688C25.3363 9.50688 29.2099 9.50688 33.061 9.50688H33.624C33.9168 10.9487 34.5699 12.1877 35.5383 13.2691C35.8761 13.6521 36.304 13.8773 36.7319 13.8773C37.0698 13.8773 37.4076 13.7422 37.6778 13.4718C37.813 13.3367 37.9256 13.179 38.0156 13.0213C38.0832 12.8636 38.1282 12.6834 38.1282 12.5031C38.1282 12.3004 38.0832 12.0976 37.9931 11.9174C37.903 11.7372 37.7679 11.5344 37.6103 11.3767C36.7094 10.3855 36.259 9.16896 36.259 7.95244C36.259 6.69086 36.7319 5.45181 37.6778 4.43805C38.1958 3.89737 38.7363 3.51439 39.2993 3.28911C39.8624 3.0413 40.4704 2.92866 41.101 2.92866C41.7316 2.92866 42.4073 3.0413 43.1054 3.24406C43.3081 3.31164 43.5108 3.33417 43.7135 3.33417C44.0063 3.33417 44.299 3.26658 44.5468 3.10889C44.7945 2.95119 44.9747 2.72591 45.0873 2.43304C45.1548 2.23029 45.1999 2.02753 45.1999 1.82478C45.1999 1.68961 45.1774 1.55444 45.1323 1.41927C45.0422 1.21652 44.9071 1.05882 44.7269 0.923655C44.5468 0.788486 44.3441 0.698373 44.0738 0.60826C43.5108 0.428035 42.9478 0.225282 42.3847 0.0450563H42.3397H42.2947C41.6415 0 40.9884 0 40.3353 0H40.2452L40.1777 0.0450563C40.1777 0.0450563 40.0876 0.112641 40.0651 0.135169C38.1057 0.49562 36.4392 1.39675 35.178 2.99625C34.2997 4.12265 33.8492 5.3617 33.5339 6.69086C33.3312 6.69086 33.1511 6.69086 32.9709 6.69086C29.1423 6.69086 25.3137 6.69086 21.4626 6.69086C14.8865 6.69086 8.31029 6.69086 1.73413 6.69086C1.39631 6.69086 1.08101 6.73592 0.788239 6.87109C0.495465 7.00626 0.270253 7.23154 0.0675633 7.52441L0 7.59199V7.6821C0 7.95244 0 8.24531 0 8.51564V8.58323L0.0450422 8.65081C0.247732 8.98874 0.495465 9.21402 0.81076 9.32666V9.34919Z" fill="#46B2BE"/>
<path d="M70.8965 62.0198C71.437 59.4516 71.9324 56.8834 71.9324 54.2251C71.9324 53.6844 71.9324 53.1662 71.8649 52.6256C71.7748 51.3865 71.7072 50.1024 71.5721 48.8408C71.3244 46.5204 71.0316 44.2226 70.7388 41.9247C70.4235 39.4917 70.1307 37.0586 69.7479 34.6256C69.5227 33.2739 69.0497 31.9672 68.0588 30.8859C67.4507 30.1875 66.7301 29.737 65.9643 29.4216C65.1986 29.1062 64.3653 28.9485 63.5321 28.8584C63.5321 28.8584 63.487 28.8584 63.4645 28.8358C63.4195 28.8133 63.3519 28.7682 63.3069 28.7232C63.2618 28.6781 63.2393 28.6331 63.2168 28.6105C62.9916 28.0023 62.8564 27.349 62.6312 26.6957C62.3159 25.772 61.8655 24.961 61.2349 24.3302C60.6043 23.6994 59.7936 23.2263 58.8252 23.001C57.8117 22.7758 56.7983 22.7532 55.7848 22.6631C55.5145 22.0323 55.1767 21.4691 54.7038 20.996C54.1858 20.4779 53.5327 20.1174 52.6769 19.9597C52.0913 19.8471 51.5058 19.7795 50.9202 19.7795C50.132 19.7795 49.3663 19.8922 48.578 20.14C48.4204 18.3602 48.3078 16.6256 48.1276 14.8909C47.8799 12.4804 47.5871 10.0924 47.2943 7.70442C47.1817 6.75824 46.7764 5.92469 46.1683 5.31643C45.5602 4.70817 44.7269 4.3252 43.781 4.3252C43.4207 4.3252 43.0604 4.37025 42.6775 4.48289C42.1145 4.64059 41.5064 4.82081 40.9659 5.13621C40.6957 5.29391 40.4479 5.49666 40.2227 5.767C40.02 6.01481 39.8399 6.3302 39.7272 6.71318C39.5921 7.18627 39.502 7.68189 39.4795 8.17751C39.412 10.0023 39.3669 11.8271 39.3444 13.6744C39.3444 13.6744 39.3444 13.7194 39.3444 13.742C39.3444 14.17 39.4119 14.553 39.4119 14.8909C39.4119 17.8646 39.3444 20.8383 39.3444 23.8121C39.3444 23.8121 39.3444 23.8571 39.3444 23.8796C39.3444 25.389 39.457 26.8984 39.4795 28.3853C39.4795 29.6243 39.4795 30.8634 39.4795 32.1024C39.4795 33.6343 39.4795 35.1662 39.4795 36.6982C39.4795 37.4866 39.4119 38.2526 39.3669 39.1312C38.6913 38.0273 38.0607 36.8559 37.2049 35.8196C35.8536 34.1975 34.0294 33.1838 32.1376 32.3953C31.1017 31.9447 30.0206 31.6744 28.8946 31.6744C28.3991 31.6744 27.8811 31.7194 27.3857 31.8546C26.6425 32.0348 26.0119 32.4403 25.5389 32.9585C25.111 33.4316 24.8183 34.0173 24.6606 34.6256C22.7238 34.6256 17.7692 34.6256 16.035 34.6256C16.035 34.5805 15.99 34.5355 15.99 34.5129C15.9449 34.4228 15.9224 34.3552 15.9224 34.3102C15.5846 32.4854 14.5712 30.9084 13.1523 29.782C11.7335 28.6556 9.93181 27.9798 8.04004 27.9798C7.6797 27.9798 7.34188 28.0023 6.98155 28.0473C5.74288 28.205 4.63935 28.588 3.67094 29.1963C2.70253 29.8045 1.91429 30.6381 1.26118 31.6744C0.698155 32.5755 0.427901 33.5893 0.0225211 34.5129V34.558L0 34.6256C0 35.5492 0 36.4729 0 37.4191V37.4866L0.0450422 37.5542C0.0450422 37.5542 0.112606 37.6669 0.135127 37.6894V37.7345H0.157648C0.450422 39.1988 1.12606 40.4829 2.16203 41.5417C2.97279 42.3527 3.82859 43.006 4.77448 43.4341C5.72036 43.8621 6.75633 44.0874 7.85987 44.0874C8.31029 44.0874 8.76071 44.0423 9.21114 43.9748C10.3147 43.7945 11.3056 43.4791 12.2064 42.9385C13.0848 42.4203 13.8505 41.6994 14.4811 40.7983C15.2018 39.762 15.6522 38.568 16.2377 37.3965H16.5755C17.4989 37.3965 19.8186 37.3965 21.913 37.3965C23.1742 37.3965 24.3678 37.3965 25.111 37.3965C25.7416 38.6581 26.6875 39.6944 27.5658 40.6856C29.4126 42.7808 30.7864 45.1237 31.6872 47.7595C32.5655 50.3277 33.6691 52.7607 35.1104 55.0811C36.4392 57.2213 37.7229 59.3615 38.9165 61.5692C39.0967 61.8846 39.2768 62.2 39.457 62.5154C39.0516 62.5154 38.6237 62.5154 38.1733 62.5154C36.0788 62.5154 33.6916 62.5154 32.7907 62.5154C32.5655 61.5692 32.2502 60.6681 31.7773 59.8571C31.3043 59.0236 30.6512 58.2801 29.818 57.6493C28.264 56.4779 26.5974 55.8922 24.8633 55.8922C23.8949 55.8922 22.9265 56.0724 21.9356 56.4103C20.6293 56.8609 19.5708 57.5818 18.7376 58.5279C17.9043 59.4741 17.3413 60.6231 16.9809 61.9297C16.9359 62.1099 16.8908 62.2226 16.8458 62.2901C16.8008 62.3577 16.7782 62.3803 16.7557 62.4028C16.7107 62.4478 16.6656 62.4478 16.5755 62.4704C16.4855 62.4704 16.3729 62.4704 16.2377 62.4704C16.2152 62.4704 16.1702 62.4704 16.1476 62.4704C11.3281 62.4704 6.53112 62.4704 1.7116 62.4704C1.37379 62.4704 1.05849 62.5154 0.765718 62.6506C0.472943 62.7858 0.247732 63.0111 0.0450422 63.3039L0 63.4391V63.5292C0 63.7995 0 64.0699 0 64.3627V64.4529L0.0450422 64.5204C0.225211 64.8133 0.472943 65.0386 0.743197 65.1738C1.03597 65.3089 1.35127 65.354 1.68908 65.354C3.6259 65.354 5.56272 65.354 7.49953 65.354C9.43635 65.354 11.3732 65.354 13.3325 65.354C13.9406 65.354 14.5486 65.354 15.1342 65.354C15.6071 65.354 16.0576 65.354 16.5305 65.354H16.553C16.6206 65.354 16.6881 65.354 16.7332 65.354C16.7557 65.354 16.7782 65.354 16.7782 65.354C16.7782 65.354 16.7782 65.354 16.8233 65.399C16.8233 65.4441 16.8683 65.5117 16.8908 65.6018C17.1836 67.2238 17.9718 68.6431 19.1655 69.7244C19.9312 70.4228 20.7645 70.986 21.6653 71.369C22.5662 71.752 23.5346 71.9773 24.5931 71.9773C24.9084 71.9773 25.2462 71.9773 25.584 71.9097C27.4758 71.6844 29.0748 70.8959 30.426 69.6569C31.1017 69.0486 31.5971 68.3502 31.98 67.5843C32.3403 66.8859 32.5881 66.1199 32.7682 65.3315C33.7141 65.3315 36.0788 65.3315 38.1508 65.3315C39.7047 65.3315 41.0785 65.3315 41.5965 65.3315H41.6415C41.6641 65.354 41.6866 65.3765 41.7316 65.399C43.2631 66.7057 44.8846 67.8095 46.7088 68.6431C46.8664 68.7107 47.0466 68.7332 47.2043 68.7332C47.3844 68.7332 47.5646 68.7107 47.7222 68.6431C47.9925 68.5304 48.2177 68.3502 48.3528 68.1249C48.488 67.8997 48.578 67.6519 48.578 67.404C48.578 66.8859 48.2627 66.3452 47.7222 66.0524C46.9115 65.6018 46.1007 65.1738 45.3575 64.6556C44.6368 64.16 43.9612 63.6869 43.3306 63.1237C42.7226 62.5605 42.182 61.9297 41.7992 61.1412C40.8758 59.339 39.9074 57.5592 38.8264 55.8471C36.9346 52.8509 35.2005 49.8096 34.1195 46.4529C33.2186 43.6594 31.6647 41.2038 29.7279 39.0186C28.9396 38.1174 28.219 37.1262 27.5884 36.0899C27.4082 35.797 27.3406 35.5492 27.3406 35.3465C27.3406 35.2338 27.3406 35.1437 27.4082 35.0536C27.4758 34.9184 27.5658 34.8058 27.746 34.6932C27.9037 34.5805 28.1289 34.5129 28.4216 34.4679C28.6018 34.4453 28.7595 34.4228 28.9396 34.4228C29.0748 34.4228 29.1874 34.4228 29.3 34.4679C30.6512 34.7833 31.9124 35.2564 33.0385 35.9322C34.142 36.608 35.1329 37.5092 35.9212 38.6581C36.4392 39.4241 36.8671 40.2801 37.3625 41.1362C37.858 41.9697 38.3985 42.7808 39.2093 43.4566C39.2093 43.4566 39.2093 43.4566 39.2093 43.5017C39.2093 43.5242 39.2093 43.5692 39.2093 43.5918C39.1867 44.3127 39.0967 45.0111 39.0741 45.732C39.0741 45.7545 39.0741 45.777 39.0741 45.7995C39.0741 46.2501 39.1867 46.6331 39.4119 46.9034C39.5246 47.0386 39.6822 47.1512 39.8399 47.2188C39.9975 47.2864 40.1777 47.3089 40.3804 47.3089C40.7857 47.3089 41.1461 47.1287 41.4163 46.8358C41.6641 46.543 41.8217 46.16 41.8442 45.732C41.8893 44.8308 41.9343 43.9522 41.9794 43.0511C42.0694 40.9109 42.2496 38.7708 42.2496 36.608C42.2496 36.4954 42.2496 36.4053 42.2496 36.2927C42.2496 31.8771 42.1595 27.4391 42.137 23.0236C42.137 22.5955 42.2046 22.145 42.2046 21.6944C42.2046 19.1713 42.137 16.6932 42.137 14.1925C42.137 14.0348 42.137 13.8997 42.137 13.742C42.137 11.8496 42.2496 9.95724 42.2496 8.04234C42.2496 7.88464 42.2721 7.772 42.3172 7.68189C42.3847 7.54672 42.4748 7.47914 42.6325 7.41155C42.7676 7.34397 42.9478 7.29891 43.1279 7.27638C43.2631 7.27638 43.3982 7.23133 43.5108 7.2088C43.6459 7.18627 43.7585 7.16374 43.8711 7.16374C44.0063 7.16374 44.0963 7.18627 44.1639 7.23133C44.1864 7.23133 44.2315 7.27638 44.254 7.32144C44.2765 7.3665 44.3216 7.43408 44.3216 7.52419C44.6368 8.87588 44.8621 10.2501 45.0422 11.6243C45.1999 12.8408 45.2449 14.0574 45.335 15.3189C45.5152 17.5718 45.7179 19.8471 45.8755 22.0999C45.9881 23.6769 46.0782 25.2539 46.1458 26.8534C46.2358 28.7457 46.3485 30.6156 46.4385 32.5079C46.5286 34.6932 46.6187 36.8784 46.7313 39.0636C46.7313 39.2664 46.7764 39.4466 46.8214 39.6043C46.8664 39.7169 46.9115 39.8296 47.0016 39.9422C47.1142 40.0999 47.2718 40.19 47.452 40.2576C47.6322 40.3252 47.8348 40.3477 48.0601 40.3477C48.1501 40.3477 48.2402 40.3477 48.3303 40.3477C48.6906 40.3252 48.9834 40.145 49.2086 39.8746C49.4113 39.6268 49.5465 39.2889 49.5465 38.9285C49.5465 38.9059 49.5465 38.8609 49.5465 38.8383C49.4338 37.2163 49.3663 35.5943 49.2762 33.9497C49.2312 33.1387 49.1636 32.3502 49.1411 31.5392C49.051 28.971 48.9609 26.4253 48.8483 23.8571C48.8483 23.8346 48.8483 23.8121 48.8483 23.7895C48.8483 23.4741 48.9384 23.2714 49.051 23.0912C49.1861 22.9335 49.3888 22.8208 49.6591 22.7532C50.2446 22.6406 50.8752 22.6631 51.5508 22.5955C51.5959 22.5955 51.6634 22.5955 51.7085 22.5955C51.9337 22.5955 52.1364 22.6406 52.3391 22.7532C52.6093 22.8884 52.8571 23.1362 53.0372 23.4291C53.2174 23.7219 53.3075 24.0373 53.33 24.3302C53.3976 25.389 53.5102 26.4478 53.6003 27.4841C53.7804 29.3089 53.9831 31.1112 54.1633 32.936C54.2759 34.2876 54.3434 35.6619 54.4561 37.0586C54.4561 37.2614 54.5236 37.4641 54.5912 37.6218C54.7038 37.8696 54.884 38.0724 55.1092 38.2075C55.3344 38.3427 55.6046 38.3878 55.9199 38.3878C55.965 38.3878 56.01 38.3878 56.0551 38.3878C56.3929 38.3878 56.7082 38.2075 56.9334 37.9597C57.1361 37.7119 57.2487 37.3515 57.2487 36.9685C57.2487 36.9685 57.2487 36.9234 57.2487 36.9009C57.2487 36.3828 57.1586 35.8646 57.1135 35.3915C56.9784 33.4766 56.8433 31.5617 56.6856 29.6243C56.6181 28.9259 56.483 28.2501 56.4154 27.5968C56.3478 26.9209 56.3253 26.2451 56.2803 25.5467C56.5055 25.5467 56.7082 25.5467 56.9109 25.5467C57.0685 25.5467 57.2487 25.5467 57.3838 25.5693C57.9243 25.6368 58.4198 25.772 58.8252 26.0198C59.2305 26.2676 59.5458 26.583 59.7485 27.1012C60.807 29.737 61.325 32.4854 61.4151 35.3465C61.4151 35.6168 61.4151 35.8646 61.4151 36.135C61.4151 36.563 61.4151 37.0136 61.4151 37.4641C61.4151 37.6669 61.4151 37.8696 61.4151 38.0724C61.4151 38.4554 61.5502 38.7708 61.7979 39.0186C62.0232 39.2664 62.361 39.4015 62.6988 39.4015H62.7438C63.1267 39.4015 63.487 39.2889 63.7573 39.0636C63.8924 38.951 64.005 38.8158 64.0726 38.6581C64.1401 38.5004 64.1852 38.3202 64.1852 38.1174V38.0949C64.1401 36.0223 64.0726 33.9497 64.0275 31.8546C64.3653 31.8546 64.7032 31.9447 65.041 32.0574C65.4013 32.2151 65.7391 32.4403 66.0319 32.7783C66.4148 33.2288 66.6625 33.747 66.8427 34.3102C67.0228 34.8734 67.1129 35.4591 67.158 36.0899C67.2255 37.0811 67.3156 38.0499 67.4507 39.0411C67.6534 40.5054 67.9237 41.9472 68.1264 43.4116C68.3516 44.966 68.5318 46.5204 68.6894 48.0749C68.8921 50.0574 69.1173 52.0173 69.2299 53.9998C69.2299 54.0899 69.2299 54.2025 69.2299 54.2927C69.2299 55.0811 69.0723 55.8922 68.9597 56.7257C68.7344 58.3703 68.5318 59.9923 68.2165 61.6143C67.9012 63.2363 67.4282 64.8584 67.0679 66.5254C67.0228 66.6831 67.0228 66.8634 67.0228 67.0436C67.0228 67.3365 67.0679 67.6519 67.2255 67.8997C67.8786 69.0486 68.5993 70.1525 69.3425 71.2564C69.4551 71.4141 69.5902 71.5943 69.7704 71.7294C69.8605 71.797 69.9506 71.8646 70.0407 71.9097C70.1308 71.9547 70.2434 71.9998 70.3785 71.9998C70.6262 71.9998 70.8739 71.9322 71.1217 71.8196C71.3694 71.7069 71.5721 71.5492 71.7298 71.3465C71.7973 71.2564 71.8424 71.1437 71.8649 71.0311C71.8874 70.9184 71.9099 70.8058 71.9099 70.7157C71.9099 70.4228 71.8424 70.13 71.7298 69.9047C71.2118 68.9585 70.5812 68.0799 70.0407 67.1788C69.9956 67.1112 69.9506 66.9535 69.9506 66.8183C69.9506 66.7733 69.9506 66.7057 69.9506 66.6606C70.2659 65.1062 70.6037 63.5743 70.919 62.0423L70.8965 62.0198ZM2.79262 35.9773C2.79262 35.9773 2.79262 35.8421 2.79262 35.7745C2.79262 34.4904 3.35565 33.2063 4.27901 32.2826C5.20238 31.3365 6.48608 30.7282 7.90491 30.7282C9.50391 30.7282 10.8552 31.2914 11.8011 32.2151C12.747 33.1387 13.3325 34.4228 13.3325 35.9322V35.9773C13.3325 37.5092 12.792 38.7482 11.9362 39.6493C11.0579 40.5505 9.86425 41.1362 8.51298 41.2939C8.31029 41.2939 8.13012 41.3164 7.94995 41.3164C6.46356 41.3164 5.17986 40.6631 4.25649 39.6944C3.33312 38.7257 2.7701 37.4641 2.7701 36.2927C2.7701 36.2025 2.7701 36.0899 2.7701 35.9998V35.9547L2.79262 35.9773ZM25.2462 69.2288C25.066 69.2288 24.8858 69.2514 24.7057 69.2514C23.2418 69.2514 21.9356 68.598 21.0122 67.6293C20.0888 66.6606 19.5258 65.399 19.5258 64.2501C19.5258 64.16 19.5258 64.0699 19.5258 63.9798V63.9347C19.5258 63.8671 19.5258 63.777 19.5258 63.7094C19.5258 62.4028 20.0888 61.1412 21.0122 60.195C21.9356 59.2488 23.2193 58.6406 24.6381 58.6406H24.6831C26.2821 58.6406 27.6334 59.2263 28.5793 60.15C29.5252 61.0736 30.0882 62.3803 30.0882 63.8671C30.0882 65.4216 29.5477 66.6606 28.6694 67.5843C27.7911 68.4854 26.5749 69.0711 25.2462 69.2063V69.2288Z" fill="#46B2BE"/>
<path d="M71.9997 8.08808C71.9997 7.88533 71.9321 7.70511 71.842 7.54741C71.7069 7.2996 71.5042 7.09685 71.234 6.96168C70.9862 6.82651 70.6709 6.7364 70.3556 6.71387C70.3106 6.71387 70.243 6.71387 70.198 6.71387C70.1079 6.71387 70.0178 6.71387 69.9277 6.71387C67.0676 6.71387 64.1849 6.71387 61.3247 6.71387C59.1626 6.71387 57.0231 6.71387 54.8611 6.71387C54.0729 6.71387 53.2621 6.71387 52.4739 6.71387C51.8208 6.71387 51.1451 6.71387 50.492 6.71387C50.0866 6.71387 49.7263 6.84904 49.4786 7.09685C49.2308 7.34466 49.0957 7.70511 49.0957 8.08808C49.0957 8.15567 49.0957 8.22325 49.0957 8.29084C49.0957 8.47106 49.1633 8.65129 49.2308 8.80899C49.3434 9.03427 49.5461 9.23702 49.7939 9.34966C50.0416 9.4623 50.3118 9.50736 50.6497 9.50736C52.1811 9.50736 53.69 9.50736 55.2214 9.50736C56.9781 9.50736 58.7347 9.50736 60.4914 9.50736C62.5183 9.50736 64.5452 9.50736 66.5496 9.50736C67.2928 9.50736 68.0585 9.50736 68.8017 9.50736C69.3197 9.50736 69.8602 9.50736 70.3782 9.50736C70.8061 9.50736 71.1889 9.34966 71.4817 9.10185C71.6168 8.96668 71.7519 8.83151 71.842 8.67382C71.9321 8.51612 71.9772 8.31337 71.9772 8.13314L71.9997 8.08808Z" fill="#46B2BE"/>
</g>
<defs>
<clipPath id="clip0_2904_4102">
<rect width="72" height="72" fill="white"/>
</clipPath>
</defs>
</svg>
